<svg width="512" height="512" version="1.1" viewBox="0 0 135.47 135.47" xmlns="http://www.w3.org/2000/svg">
 <rect transform="rotate(45)" x="92.887" y="-58.469" width="5.8094" height="116.94" stroke="#000" stroke-width="2.1283"/>
 <g transform="matrix(.43126 0 0 .43126 -31.112 -50.805)" style="shape-inside:url(#rect6817);white-space:pre" aria-label="50">
  <path d="m86.271 131.97h67.289v19.898h-45.703v16.242q3.0938-0.84375 6.1875-1.2656 3.1641-0.49219 6.5391-0.49219 19.195 0 29.883 9.6328 10.688 9.5625 10.688 26.719 0 17.016-11.672 26.648-11.602 9.6328-32.273 9.6328-8.9297 0-17.719-1.7578-8.7188-1.6875-17.367-5.2031v-21.305q8.5781 4.9219 16.242 7.3828 7.7344 2.4609 14.555 2.4609 9.8438 0 15.469-4.7812 5.6953-4.8516 5.6953-13.078 0-8.2969-5.6953-13.078-5.625-4.7812-15.469-4.7812-5.8359 0-12.445 1.5469-6.6094 1.4766-14.203 4.6406z"/>
  <path d="m237.44 184.35q0-19.688-3.7266-27.703-3.6562-8.0859-12.375-8.0859t-12.445 8.0859q-3.7266 8.0156-3.7266 27.703 0 19.898 3.7266 28.055 3.7266 8.1562 12.445 8.1562 8.6484 0 12.375-8.1562 3.7266-8.1562 3.7266-28.055zm27.07 0.21094q0 26.086-11.25 40.289-11.25 14.133-31.922 14.133-20.742 0-31.992-14.133-11.25-14.203-11.25-40.289 0-26.156 11.25-40.289 11.25-14.203 31.992-14.203 20.672 0 31.922 14.203 11.25 14.133 11.25 40.289z"/>
 </g>
 <g transform="matrix(.43126 0 0 .43126 19.285 29.858)" style="shape-inside:url(#rect6817-8);white-space:pre" aria-label="50">
  <path d="m86.271 131.97h67.289v19.898h-45.703v16.242q3.0938-0.84375 6.1875-1.2656 3.1641-0.49219 6.5391-0.49219 19.195 0 29.883 9.6328 10.688 9.5625 10.688 26.719 0 17.016-11.672 26.648-11.602 9.6328-32.273 9.6328-8.9297 0-17.719-1.7578-8.7188-1.6875-17.367-5.2031v-21.305q8.5781 4.9219 16.242 7.3828 7.7344 2.4609 14.555 2.4609 9.8438 0 15.469-4.7812 5.6953-4.8516 5.6953-13.078 0-8.2969-5.6953-13.078-5.625-4.7812-15.469-4.7812-5.8359 0-12.445 1.5469-6.6094 1.4766-14.203 4.6406z"/>
  <path d="m237.44 184.35q0-19.688-3.7266-27.703-3.6562-8.0859-12.375-8.0859t-12.445 8.0859q-3.7266 8.0156-3.7266 27.703 0 19.898 3.7266 28.055 3.7266 8.1562 12.445 8.1562 8.6484 0 12.375-8.1562 3.7266-8.1562 3.7266-28.055zm27.07 0.21094q0 26.086-11.25 40.289-11.25 14.133-31.922 14.133-20.742 0-31.992-14.133-11.25-14.203-11.25-40.289 0-26.156 11.25-40.289 11.25-14.203 31.992-14.203 20.672 0 31.922 14.203 11.25 14.133 11.25 40.289z"/>
 </g>
</svg>
