<?xml version="1.0" encoding="UTF-8" standalone="no"?>
<!-- Created with Inkscape (http://www.inkscape.org/) -->

<svg
   width="512"
   height="512"
   viewBox="0 0 135.46666 135.46666"
   version="1.1"
   id="svg5"
   xmlns="http://www.w3.org/2000/svg"
   xmlns:svg="http://www.w3.org/2000/svg">
  <defs
     id="defs2" />
  <g
     id="layer1"
     transform="matrix(1.1428571,0,0,1.1428571,-9.6761912,-9.6761912)">
    <path
       id="path1159-9"
       style="stroke-width:0.0631333"
       d="m 61.118752,41.275002 a 19.84375,19.84375 0 0 1 -19.84375,19.84375 19.84375,19.84375 0 0 1 -19.84375,-19.84375 19.84375,19.84375 0 0 1 19.84375,-19.84375 19.84375,19.84375 0 0 1 19.84375,19.84375 z m 52.916668,0 a 19.84375,19.84375 0 0 1 -19.843754,19.84375 19.84375,19.84375 0 0 1 -19.84375,-19.84375 19.84375,19.84375 0 0 1 19.84375,-19.84375 19.84375,19.84375 0 0 1 19.843754,19.84375 z M 61.118752,94.191666 a 19.84375,19.84375 0 0 1 -19.84375,19.843754 19.84375,19.84375 0 0 1 -19.84375,-19.843754 19.84375,19.84375 0 0 1 19.84375,-19.84375 19.84375,19.84375 0 0 1 19.84375,19.84375 z m 52.916668,0 a 19.84375,19.84375 0 0 1 -19.843754,19.843754 19.84375,19.84375 0 0 1 -19.84375,-19.843754 19.84375,19.84375 0 0 1 19.84375,-19.84375 19.84375,19.84375 0 0 1 19.843754,19.84375 z" />
  </g>
</svg>
