<?xml version="1.0" encoding="UTF-8"?>
<svg width="512" height="512" version="1.1" viewBox="0 0 135.47 135.47" xmlns="http://www.w3.org/2000/svg">
 <g transform="matrix(1.1429 0 0 1.1429 -9.6762 -9.6762)">
  <path d="m61.119 41.275a19.844 19.844 0 0 1-19.844 19.844 19.844 19.844 0 0 1-19.844-19.844 19.844 19.844 0 0 1 19.844-19.844 19.844 19.844 0 0 1 19.844 19.844zm52.917 0a19.844 19.844 0 0 1-19.844 19.844 19.844 19.844 0 0 1-19.844-19.844 19.844 19.844 0 0 1 19.844-19.844 19.844 19.844 0 0 1 19.844 19.844zm-52.917 52.917a19.844 19.844 0 0 1-19.844 19.844 19.844 19.844 0 0 1-19.844-19.844 19.844 19.844 0 0 1 19.844-19.844 19.844 19.844 0 0 1 19.844 19.844zm52.917 0a19.844 19.844 0 0 1-19.844 19.844 19.844 19.844 0 0 1-19.844-19.844 19.844 19.844 0 0 1 19.844-19.844 19.844 19.844 0 0 1 19.844 19.844z" stroke-width=".063133"/>
 </g>
</svg>
