<svg width="512" height="512" version="1.1" viewBox="0 0 135.47 135.47" xmlns="http://www.w3.org/2000/svg">
 <defs>
  <clipPath id="clipPath1214">
   <g display="none">
    <circle cx="30.216" cy="104.62" r="18.29" d="M 48.505852,104.6231 A 18.289534,18.289534 0 0 1 30.216318,122.91263 18.289534,18.289534 0 0 1 11.926785,104.6231 18.289534,18.289534 0 0 1 30.216318,86.333567 18.289534,18.289534 0 0 1 48.505852,104.6231 Z" fill="#a40000" stroke-width="7.9377"/>
    <circle cx="30.74" cy="51.188" r="13.717" d="M 44.456692,51.187618 A 13.717148,13.717148 0 0 1 30.739544,64.904766 13.717148,13.717148 0 0 1 17.022396,51.187618 13.717148,13.717148 0 0 1 30.739544,37.47047 13.717148,13.717148 0 0 1 44.456692,51.187618 Z" fill="#a40000" stroke-width="5.9533"/>
    <circle cx="70.787" cy="42.548" r="13.717" d="M 84.50444,42.547523 A 13.717148,13.717148 0 0 1 70.787292,56.264671 13.717148,13.717148 0 0 1 57.070145,42.547523 13.717148,13.717148 0 0 1 70.787292,28.830376 13.717148,13.717148 0 0 1 84.50444,42.547523 Z" fill="#a40000" stroke-width="5.9533"/>
    <circle cx="113.61" cy="62.382" r="13.717" d="M 127.32999,62.382256 A 13.717148,13.717148 0 0 1 113.61285,76.099403 13.717148,13.717148 0 0 1 99.895699,62.382256 13.717148,13.717148 0 0 1 113.61285,48.665108 13.717148,13.717148 0 0 1 127.32999,62.382256 Z" fill="#a40000" stroke-width="5.9533"/>
   </g>
   <path class="powerclip" d="m-3.1258 13.639h141.72v108.19h-141.72zm51.632 90.984a18.29 18.29 0 0 0-18.29-18.29 18.29 18.29 0 0 0-18.29 18.29 18.29 18.29 0 0 0 18.29 18.29 18.29 18.29 0 0 0 18.29-18.29zm-4.0492-53.435a13.717 13.717 0 0 0-13.717-13.717 13.717 13.717 0 0 0-13.717 13.717 13.717 13.717 0 0 0 13.717 13.717 13.717 13.717 0 0 0 13.717-13.717zm40.048-8.6401a13.717 13.717 0 0 0-13.717-13.717 13.717 13.717 0 0 0-13.717 13.717 13.717 13.717 0 0 0 13.717 13.717 13.717 13.717 0 0 0 13.717-13.717zm42.826 19.835a13.717 13.717 0 0 0-13.717-13.717 13.717 13.717 0 0 0-13.717 13.717 13.717 13.717 0 0 0 13.717 13.717 13.717 13.717 0 0 0 13.717-13.717z"/>
  </clipPath>
 </defs>
 <path d="m133.6 67.735a65.861 49.096 0 0 1-65.861 49.096 65.861 49.096 0 0 1-65.861-49.096 65.861 49.096 0 0 1 65.861-49.096 65.861 49.096 0 0 1 65.861 49.096z" clip-path="url(#clipPath1214)" stroke-width="7.9377"/>
</svg>
