<svg width="512" height="512" version="1.1" viewBox="0 0 135.47 135.47" xmlns="http://www.w3.org/2000/svg">
 <defs>
  <clipPath id="clipPath1879">
   <ellipse cx="67.735" cy="67.735" rx="23.724" ry="23.765" d="M 91.458994,67.735001 A 23.723993,23.765114 0 0 1 67.735001,91.500114 23.723993,23.765114 0 0 1 44.011007,67.735001 23.723993,23.765114 0 0 1 67.735001,43.969887 23.723993,23.765114 0 0 1 91.458994,67.735001 Z" display="none" stroke-width="5.7816"/>
   <path class="powerclip" d="m30.164 30.107h75.142v75.255h-75.142zm61.295 37.628a23.724 23.765 0 0 0-23.724-23.765 23.724 23.765 0 0 0-23.724 23.765 23.724 23.765 0 0 0 23.724 23.765 23.724 23.765 0 0 0 23.724-23.765z" stroke-width="5.7816"/>
  </clipPath>
  <clipPath id="clipath_lpe_path-effect1883-5">
   <ellipse cx="67.735" cy="67.735" rx="23.724" ry="23.765" d="M 91.458994,67.735001 A 23.723993,23.765114 0 0 1 67.735001,91.500114 23.723993,23.765114 0 0 1 44.011007,67.735001 23.723993,23.765114 0 0 1 67.735001,43.969887 23.723993,23.765114 0 0 1 91.458994,67.735001 Z" display="none" stroke-width="5.7816"/>
   <path class="powerclip" d="m30.164 30.107h75.142v75.255h-75.142zm61.295 37.628a23.724 23.765 0 0 0-23.724-23.765 23.724 23.765 0 0 0-23.724 23.765 23.724 23.765 0 0 0 23.724 23.765 23.724 23.765 0 0 0 23.724-23.765z" stroke-width="5.7816"/>
  </clipPath>
 </defs>
 <g transform="translate(-4.7463)">
  <rect x="8.359" y="49.158" width="65.142" height="51.441" stroke-width="5.4007"/>
  <path transform="translate(-26.805 -11.335)" d="m100.31 67.735a32.571 32.628 0 0 1-32.571 32.628 32.571 32.628 0 0 1-32.571-32.628 32.571 32.628 0 0 1 32.571-32.628 32.571 32.628 0 0 1 32.571 32.628z" clip-path="url(#clipPath1879)" stroke-width="7.9377"/>
 </g>
 <g transform="translate(4.972)">
  <rect x="77.323" y="72.381" width="49.788" height="39.316" stroke-width="4.1277"/>
  <path transform="matrix(.7643 0 0 .7643 50.447 26.147)" d="m100.31 67.735a32.571 32.628 0 0 1-32.571 32.628 32.571 32.628 0 0 1-32.571-32.628 32.571 32.628 0 0 1 32.571-32.628 32.571 32.628 0 0 1 32.571 32.628z" clip-path="url(#clipath_lpe_path-effect1883-5)" stroke-width="7.9377"/>
 </g>
</svg>
