<?xml version="1.0" encoding="UTF-8" standalone="no"?>
<!-- Created with Inkscape (http://www.inkscape.org/) -->

<svg
   version="1.1"
   id="svg2"
   width="204.8"
   height="153.60001"
   viewBox="0 0 204.8 153.60001"
   sodipodi:docname="404.svg"
   inkscape:version="1.1.2 (0a00cf5339, 2022-02-04)"
   xmlns:inkscape="http://www.inkscape.org/namespaces/inkscape"
   xmlns:sodipodi="http://sodipodi.sourceforge.net/DTD/sodipodi-0.dtd"
   xmlns="http://www.w3.org/2000/svg"
   xmlns:svg="http://www.w3.org/2000/svg">
  <sodipodi:namedview
     id="namedview8"
     pagecolor="#ffffff"
     bordercolor="#666666"
     borderopacity="1.0"
     inkscape:pageshadow="2"
     inkscape:pageopacity="0.0"
     inkscape:pagecheckerboard="0"
     showgrid="false"
     inkscape:zoom="5.4622394"
     inkscape:cx="102.43052"
     inkscape:cy="76.891541"
     inkscape:current-layer="svg2" />
  <defs
     id="defs6" />
  <g
     id="g8"
     style="fill:#6a7c82;fill-opacity:1">
    <g
       id="g1188"
       transform="translate(-11.442045,10.293547)"
       style="fill:#6a7c82;fill-opacity:1">
      <path
         id="path849"
         style="fill:#6a7c82;fill-opacity:1;stroke-width:2.663"
         d="M 102.40039,17.392578 A 33.640049,33.640049 0 0 0 68.759766,51.03125 33.640049,33.640049 0 0 0 102.40039,84.671875 33.640049,33.640049 0 0 0 121.04688,78.988281 18.87962,18.87962 0 0 1 111.09766,81.845703 18.87962,18.87962 0 0 1 92.21875,62.964844 18.87962,18.87962 0 0 1 111.09766,44.085938 18.87962,18.87962 0 0 1 129.97852,62.964844 18.87962,18.87962 0 0 1 123.67578,77.019531 33.640049,33.640049 0 0 0 136.04102,51.03125 33.640049,33.640049 0 0 0 102.40039,17.392578 Z" />
      <circle
         style="fill:#6a7c82;fill-opacity:1;stroke-width:1.49454"
         id="path849-3"
         cx="140.04471"
         cy="96.740715"
         r="18.87962" />
    </g>
  </g>
</svg>
