<?xml version="1.0" encoding="UTF-8" standalone="no"?>
<!-- Created with Inkscape (http://www.inkscape.org/) -->

<svg
   version="1.1"
   id="svg2"
   width="512"
   height="512"
   viewBox="0 0 512 512"
   xmlns:xlink="http://www.w3.org/1999/xlink"
   xmlns="http://www.w3.org/2000/svg"
   xmlns:svg="http://www.w3.org/2000/svg">
  <defs
     id="defs6">
    <pattern
       xlink:href="#WireFence"
       preserveAspectRatio="xMidYMid"
       id="pattern122"
       patternTransform="scale(0.3)" />
    <pattern
       patternUnits="userSpaceOnUse"
       width="52"
       height="61.14"
       id="WireFence"
       patternTransform="scale(0.3,0.3)"
       preserveAspectRatio="xMidYMid"
       style="fill:#000000">
      <path
         id="rect9"
         style="stroke:none"
         d="m 31.437499,0 7.257813,7.2578126 c -0.879538,1.3312883 -0.879117,3.0161644 10e-7,4.3476564 L 26.072266,24.228516 14,36.300782 0,22.302735 v 2.828124 l 12.640625,12.640625 c -0.89873,1.34129 -0.898729,3.115742 0,4.457031 L 0,54.86914 v 2.828126 l 14,-14 17.443359,17.443359 2.828125,10e-7 -18.912109,-18.91211 c 0.898055,-1.340861 0.898042,-3.116186 0,-4.457031 L 27.488281,25.642578 40,13.128906 l 12.000001,12 L 52,22.300781 41.302734,11.605469 c 0.879644,-1.331587 0.879713,-3.0161029 0,-4.3476564 L 48.560547,0 H 45.732422 L 40,5.732422 34.267578,0 Z M 52,54.869141 l -6.271484,6.271484 2.828124,0 L 52,57.697265 Z" />
    </pattern>
    <clipPath
       clipPathUnits="userSpaceOnUse"
       id="clipPath27">
      <rect
         style="fill:none;stroke:#000000;stroke-width:0.999999;stroke-linecap:butt;stroke-linejoin:bevel;paint-order:stroke markers fill;stop-color:#000000"
         id="rect28-6"
         width="46.160622"
         height="39.922417"
         x="86.574379"
         y="420.06253" />
    </clipPath>
    <clipPath
       clipPathUnits="userSpaceOnUse"
       id="clipPath118">
      <rect
         style="fill:#ff0000;stroke:none;stroke-width:3;stroke-linecap:square;stroke-linejoin:miter;paint-order:stroke markers fill;stop-color:#000000"
         id="rect118"
         width="78"
         height="45.033199"
         x="763.61322"
         y="452.82422" />
    </clipPath>
    <clipPath
       clipPathUnits="userSpaceOnUse"
       id="clipPath55">
      <path
         id="path55"
         style="stroke-width:0.1;stroke-linecap:square;paint-order:markers fill stroke;stop-color:#000000"
         d="m 1736.6147,-745.57287 h 1589.4765 v 72.46715 H 1736.6147 Z" />
    </clipPath>
    <clipPath
       clipPathUnits="userSpaceOnUse"
       id="clipPath25">
      <rect
         style="fill:#ff0000;stroke:none;stroke-width:3;stroke-linecap:square;stroke-linejoin:miter;paint-order:stroke markers fill;stop-color:#000000"
         id="rect25-8"
         width="78"
         height="45.033199"
         x="763.61322"
         y="452.82422" />
    </clipPath>
    <clipPath
       clipPathUnits="userSpaceOnUse"
       id="clipPath24">
      <rect
         style="fill:none;stroke:#000000;stroke-width:0.999999;stroke-linecap:butt;stroke-linejoin:bevel;paint-order:stroke markers fill;stop-color:#000000"
         id="rect24"
         width="44.999748"
         height="77.937294"
         x="251.53429"
         y="222.73541" />
    </clipPath>
    <clipPath
       clipPathUnits="userSpaceOnUse"
       id="clipPath15">
      <rect
         style="fill:none;stroke:#000000;stroke-linecap:butt;stroke-linejoin:bevel;paint-order:stroke markers fill;stop-color:#000000"
         id="rect15-7"
         width="45.034248"
         height="38.955639"
         x="262.48285"
         y="121.00073" />
    </clipPath>
    <clipPath
       clipPathUnits="userSpaceOnUse"
       id="clipPath52">
      <path
         id="path52"
         style="stroke-width:0.1;stroke-linecap:square;paint-order:markers fill stroke;stop-color:#000000"
         d="m -880.82767,-187.29769 h 1640.84 v 73.28155 h -1640.84 z" />
    </clipPath>
    <linearGradient
       id="linearGradient932">
      <stop
         style="stop-color:#d3d7cf;stop-opacity:1;"
         offset="0"
         id="stop930" />
    </linearGradient>
    <rect
       x="431.04541"
       y="12.922381"
       width="165.65886"
       height="424.72681"
       id="rect15640" />
    <rect
       x="275.12827"
       y="63.487175"
       width="125.47808"
       height="90.347405"
       id="rect65638" />
    <rect
       x="274.66911"
       y="83.016854"
       width="125.01892"
       height="70.817726"
       id="rect62530" />
    <rect
       x="10.947174"
       y="14.715694"
       width="1221.7237"
       height="487.93166"
       id="rect43298" />
  </defs>
  <rect
     style="display:none;opacity:0.05;fill:none;stroke:#818181;stroke-width:10.5493;stroke-opacity:1"
     id="rect1099"
     width="76.180122"
     height="76.180138"
     x="91.439789"
     y="91.439781"
     rx="2.2009101"
     ry="5.2248907" />
  <rect
     style="display:none;opacity:0.4;fill:none;stroke:#d7d7d7;stroke-width:6.11938;stroke-opacity:1"
     id="rect1099-8"
     width="44.190041"
     height="44.190044"
     x="107.43482"
     y="107.43482"
     rx="2.2009101"
     ry="5.2248907" />
  <rect
     style="display:none;opacity:0.05;fill:none;stroke:#818181;stroke-width:10.5493;stroke-opacity:1"
     id="rect1099-0"
     width="76.180122"
     height="76.180138"
     x="344.3801"
     y="344.38013"
     rx="2.2009101"
     ry="5.2248907" />
  <rect
     style="display:none;opacity:0.4;fill:none;stroke:#d7d7d7;stroke-width:6.11938;stroke-opacity:1"
     id="rect1099-8-9"
     width="44.190041"
     height="44.190044"
     x="360.37512"
     y="360.37512"
     rx="2.2009101"
     ry="5.2248907" />
  <text
     xml:space="preserve"
     id="text62528"
     style="font-style:normal;font-weight:normal;font-size:40px;line-height:1.25;font-family:sans-serif;white-space:pre;shape-inside:url(#rect62530);display:inline;opacity:0;fill:#000000;fill-opacity:1;stroke:none"
     transform="translate(-950.55491,-19.289335)" />
  <text
     xml:space="preserve"
     id="text65636"
     style="font-style:normal;font-weight:normal;font-size:40px;line-height:1.25;font-family:sans-serif;white-space:pre;shape-inside:url(#rect65638);display:inline;opacity:0;fill:#000000;fill-opacity:1;stroke:none"
     transform="translate(-950.55491,-19.289335)" />
  <text
     xml:space="preserve"
     id="text15638"
     style="font-style:normal;font-weight:normal;font-size:40px;line-height:1.25;font-family:sans-serif;white-space:pre;shape-inside:url(#rect15640);display:inline;opacity:0;fill:#000000;fill-opacity:1;stroke:none"
     transform="translate(-950.55491,-19.289335)" />
  <path
     id="path865"
     style="opacity:0;fill:#000000;stroke-width:0.542517;fill-opacity:1"
     d="m 171.99796,100.28513 c 33.65212,42.99104 17.64997,75.72991 -67.86409,67.86409 -37.322743,-3.43305 -67.864087,-30.38379 -67.864087,-67.86409 2e-6,-37.4803 30.383787,-67.864085 67.864087,-67.864087 37.4803,0 44.76171,38.35048 67.86409,67.864087 z" />
  <g
     id="layer1"
     transform="translate(-950.55491,-19.289335)"
     style="opacity:0;fill:#000000;stroke:none;fill-opacity:1" />
  <circle
     style="opacity:0;fill:#000000;fill-opacity:1;stroke:none;stroke-width:3.208;stroke-miterlimit:26.1"
     id="path1"
     cx="405.31396"
     cy="136.47011"
     r="35.598972" />
  <circle
     style="fill:#000000;fill-opacity:1;stroke:none;stroke-width:4.82857;stroke-miterlimit:26.1;opacity:0"
     id="path1-6"
     cx="148.97743"
     cy="390.84714"
     r="53.582386" />
  <path
     id="path1-6-5"
     style="fill:#000000;stroke-width:5.92549;stroke-miterlimit:26.1;opacity:0;fill-opacity:1"
     d="m 427.33231,337.26474 c 0,36.31537 -29.43943,65.7548 -65.7548,65.7548 -36.31537,0 -37.38203,-43.08781 -65.75479,-65.7548 -61.90329,-49.45451 25.08813,-66.39176 65.75479,-65.7548 36.31092,0.56874 65.7548,29.43943 65.7548,65.7548 z" />
  <rect
     style="fill:url(#pattern122);stroke:none;stroke-width:5;stroke-miterlimit:26.1;fill-opacity:1;opacity:0.07"
     id="rect1"
     width="512"
     height="512"
     x="0"
     y="0" />
</svg>
