<svg width="1500" height="500" version="1.1" viewBox="0 0 1500 500" xmlns="http://www.w3.org/2000/svg">
 <g style="fill:#667891">
  <g transform="translate(-37.096 -78.92)" style="fill:#667891">
   <path d="m304.63 271.08c108.96-21.273 77.888 128.24 149.6 138.58 81.637 11.778 149.6-62.045 149.6-138.58s-66.979-138.14-149.6-138.58c-155.39-0.83402-247.75 157.75-149.6 138.58z" style="fill:#667891;paint-order:markers fill stroke"/>
   <circle cx="331.74" cy="316.1" r="26.741" style="fill:#667891;paint-order:markers fill stroke"/>
  </g>
  <circle cx="1049.3" cy="190.36" r="125.79" style="fill:#667891;paint-order:markers fill stroke"/>
  <circle cx="1424.5" cy="383.48" r="21.008" style="fill:#667891;opacity:.8;paint-order:markers fill stroke"/>
  <path d="m197.11 310.29-153.71 0.33028c-36.392 53.625-17.976 115.18 10.174 135.91h136.84s18.364 3.9326 24.381-32.712c43.902-3.8308 65.205-90.65 0-75.16-1.1398-11.553-6.3507-25.998-17.684-28.367zm30.746 40.818c6.6608 0.0642 13.127 2.1946 13.547 11.766 1.0889 22.295-15.477 35.049-25.59 35.071 0.96448-13.173 1.7325-33.638-0.0264-45.789 2.8655-0.16932 7.5131-1.0922 12.07-1.0483z" style="fill:#667891"/>
  <path d="m146.92 167.48c93.136 110.41-23.51 86.489-22.167 134.26-11.526-53.778 86.913-29.578 22.167-134.26z" style="fill:#667891"/>
  <path d="m148.55 248.39c-61.03-70.201-29.508-97.661 4.3122-122.57-25.941 4.3607-105.72 49.911-4.3122 122.57z" style="fill:#667891"/>
  <path d="m1444.1 348.38c-75.63-15.94-54.063 96.087-103.84 103.84-56.666 8.8255-103.84-46.49-103.84-103.84s46.491-103.51 103.84-103.84c107.86-0.62493 171.97 118.2 103.84 103.84z" style="fill:#667891;paint-order:markers fill stroke"/>
  <circle cx="733.04" cy="141.8" r="68.137" style="fill:#667891;paint-order:markers fill stroke"/>
 </g>
</svg>
